{
  "accessors": [
    {
      "bufferView": 2,
      "componentType": 5126,
      "count": 970,
      "max": [
        5.027615070343018,
        7.80562686920166,
        4.701272010803223
      ],
      "min": [
        -5.3388848304748535,
        4.600768089294434,
        -4.887474060058594
      ],
      "type": "VEC3"
    },
    {
      "bufferView": 2,
      "byteOffset": 11640,
      "componentType": 5126,
      "count": 970,
      "max": [
        0.9874035120010376,
        0.9994984865188599,
        0.9878678917884827
      ],
      "min": [
        -0.9658557772636414,
        -0.9993395209312439,
        -0.9710561037063599
      ],
      "type": "VEC3"
    },
    {
      "bufferView": 3,
      "componentType": 5126,
      "count": 970,
      "max": [
        0.9958832263946533,
        0.9990533590316772,
        0.9990031719207764,
        1.0
      ],
      "min": [
        -0.9287611246109009,
        -0.9285351634025574,
        -0.9996997117996216,
        -1.0
      ],
      "type": "VEC4"
    },
    {
      "bufferView": 1,
      "componentType": 5126,
      "count": 970,
      "max": [
        0.9598889946937561,
        0.9951170086860657
      ],
      "min": [
        0.27320098876953125,
        0.03911900147795677
      ],
      "type": "VEC2"
    },
    {
      "bufferView": 0,
      "componentType": 5125,
      "count": 4722,
      "type": "SCALAR"
    },
    {
      "bufferView": 2,
      "byteOffset": 23280,
      "componentType": 5126,
      "count": 5398,
      "max": [
        6.038997173309326,
        19.91803550720215,
        0.655236005783081
      ],
      "min": [
        -6.83148717880249,
        8.544894218444824,
        -0.5521010160446167
      ],
      "type": "VEC3"
    },
    {
      "bufferView": 2,
      "byteOffset": 88056,
      "componentType": 5126,
      "count": 5398,
      "max": [
        1.0,
        1.0,
        1.0
      ],
      "min": [
        -1.0,
        -1.0,
        -1.0
      ],
      "type": "VEC3"
    },
    {
      "bufferView": 3,
      "byteOffset": 15520,
      "componentType": 5126,
      "count": 5398,
      "max": [
        1.0,
        0.9624124765396118,
        0.9999979138374329,
        1.0
      ],
      "min": [
        -1.0,
        -0.9977180361747742,
        -0.9999978542327881,
        1.0
      ],
      "type": "VEC4"
    },
    {
      "bufferView": 1,
      "byteOffset": 7760,
      "componentType": 5126,
      "count": 5398,
      "max": [
        0.994055986404419,
        0.9610450267791748
      ],
      "min": [
        0.004883000161498785,
        0.0048870001919567585
      ],
      "type": "VEC2"
    },
    {
      "bufferView": 0,
      "byteOffset": 18888,
      "componentType": 5125,
      "count": 29640,
      "type": "SCALAR"
    },
    {
      "bufferView": 2,
      "byteOffset": 152832,
      "componentType": 5126,
      "count": 828,
      "max": [
        4.093008995056152,
        17.851707458496094,
        1.650810956954956
      ],
      "min": [
        -4.596521854400635,
        10.542417526245117,
        -1.3017499446868896
      ],
      "type": "VEC3"
    },
    {
      "bufferView": 2,
      "byteOffset": 162768,
      "componentType": 5126,
      "count": 828,
      "max": [
        1.0,
        0.9948873519897461,
        0.9999937415122986
      ],
      "min": [
        -1.0,
        -0.9948873519897461,
        -0.9999937415122986
      ],
      "type": "VEC3"
    },
    {
      "bufferView": 3,
      "byteOffset": 101888,
      "componentType": 5126,
      "count": 828,
      "max": [
        0.27123400568962097,
        0.6737614274024963,
        0.9995844960212708,
        1.0
      ],
      "min": [
        -0.9999845027923584,
        -0.6265255212783813,
        -0.9948873519897461,
        1.0
      ],
      "type": "VEC4"
    },
    {
      "bufferView": 1,
      "byteOffset": 50944,
      "componentType": 5126,
      "count": 828,
      "max": [
        0.710345983505249,
        0.4219230115413666
      ],
      "min": [
        0.47774800658226013,
        0.0048870001919567585
      ],
      "type": "VEC2"
    },
    {
      "bufferView": 0,
      "byteOffset": 137448,
      "componentType": 5125,
      "count": 4128,
      "type": "SCALAR"
    },
    {
      "bufferView": 2,
      "byteOffset": 172704,
      "componentType": 5126,
      "count": 598,
      "max": [
        5.849758148193359,
        6.0452141761779785,
        5.817715167999268
      ],
      "min": [
        -5.849761009216309,
        3.801858901977539,
        -5.8177170753479
      ],
      "type": "VEC3"
    },
    {
      "bufferView": 2,
      "byteOffset": 179880,
      "componentType": 5126,
      "count": 598,
      "max": [
        1.0,
        1.0,
        0.994521975517273
      ],
      "min": [
        -1.0,
        -1.0,
        -0.9945218563079834
      ],
      "type": "VEC3"
    },
    {
      "bufferView": 3,
      "byteOffset": 115136,
      "componentType": 5126,
      "count": 598,
      "max": [
        0.6968348026275635,
        0.9994412660598755,
        0.9480746984481812,
        1.0
      ],
      "min": [
        -0.9208477735519409,
        -0.9965413808822632,
        -0.6677078008651733,
        1.0
      ],
      "type": "VEC4"
    },
    {
      "bufferView": 1,
      "byteOffset": 57568,
      "componentType": 5126,
      "count": 598,
      "max": [
        0.47147300839424133,
        0.44188499450683594
      ],
      "min": [
        0.24071399867534637,
        0.004887999966740608
      ],
      "type": "VEC2"
    },
    {
      "bufferView": 0,
      "byteOffset": 153960,
      "componentType": 5125,
      "count": 3420,
      "type": "SCALAR"
    },
    {
      "bufferView": 2,
      "byteOffset": 187056,
      "componentType": 5126,
      "count": 180,
      "max": [
        0.43584200739860535,
        11.205589294433594,
        0.43584200739860535
      ],
      "min": [
        -0.6780480146408081,
        6.084929943084717,
        -0.7270280122756958
      ],
      "type": "VEC3"
    },
    {
      "bufferView": 2,
      "byteOffset": 189216,
      "componentType": 5126,
      "count": 180,
      "max": [
        0.9999996423721313,
        0.9774197340011597,
        0.9999861121177673
      ],
      "min": [
        -0.9999997615814209,
        -1.0,
        -0.9999867677688599
      ],
      "type": "VEC3"
    },
    {
      "bufferView": 3,
      "byteOffset": 124704,
      "componentType": 5126,
      "count": 180,
      "max": [
        0.9999090433120728,
        0.551145613193512,
        0.9999749064445496,
        1.0
      ],
      "min": [
        -0.9999966621398926,
        -0.5387693047523499,
        -0.9996535181999207,
        1.0
      ],
      "type": "VEC4"
    },
    {
      "bufferView": 1,
      "byteOffset": 62352,
      "componentType": 5126,
      "count": 180,
      "max": [
        0.8830850124359131,
        0.9675480127334595
      ],
      "min": [
        0.8122429847717285,
        0.8166900277137756
      ],
      "type": "VEC2"
    },
    {
      "bufferView": 0,
      "byteOffset": 167640,
      "componentType": 5125,
      "count": 834,
      "type": "SCALAR"
    },
    {
      "bufferView": 2,
      "byteOffset": 191376,
      "componentType": 5126,
      "count": 511,
      "max": [
        6.467915058135986,
        5.4183478355407715,
        6.49001407623291
      ],
      "min": [
        -6.486499786376953,
        0.051899999380111694,
        -6.49001407623291
      ],
      "type": "VEC3"
    },
    {
      "bufferView": 2,
      "byteOffset": 197508,
      "componentType": 5126,
      "count": 511,
      "max": [
        1.0,
        1.0,
        0.9996321201324463
      ],
      "min": [
        -1.0,
        -0.9998946189880371,
        -0.998224139213562
      ],
      "type": "VEC3"
    },
    {
      "bufferView": 3,
      "byteOffset": 127584,
      "componentType": 5126,
      "count": 511,
      "max": [
        0.8750995397567749,
        0.9999980926513672,
        0.9316896200180054,
        1.0
      ],
      "min": [
        -0.9978702068328857,
        -0.9999289512634277,
        -0.9998886585235596,
        1.0
      ],
      "type": "VEC4"
    },
    {
      "bufferView": 1,
      "byteOffset": 63792,
      "componentType": 5126,
      "count": 511,
      "max": [
        0.6431930065155029,
        0.7751299738883972
      ],
      "min": [
        0.004883000161498785,
        0.004883000161498785
      ],
      "type": "VEC2"
    },
    {
      "bufferView": 0,
      "byteOffset": 170976,
      "componentType": 5125,
      "count": 2244,
      "type": "SCALAR"
    }
  ],
  "asset": {
    "extras": {
      "author": "gamertturtle (https://sketchfab.com/gamertturtle)",
      "license": "CC-BY-4.0 (http://creativecommons.org/licenses/by/4.0/)",
      "source": "https://sketchfab.com/3d-models/pvz-sunflower-in-a-pot-3e38e8351c6e48e786cdd8bd181a09db",
      "title": "PvZ Sunflower in a Pot"
    },
    "generator": "Sketchfab-12.65.0",
    "version": "2.0"
  },
  "bufferViews": [
    {
      "buffer": 0,
      "byteLength": 179952,
      "name": "floatBufferViews",
      "target": 34963
    },
    {
      "buffer": 0,
      "byteLength": 67880,
      "byteOffset": 179952,
      "byteStride": 8,
      "name": "floatBufferViews",
      "target": 34962
    },
    {
      "buffer": 0,
      "byteLength": 203640,
      "byteOffset": 247832,
      "byteStride": 12,
      "name": "floatBufferViews",
      "target": 34962
    },
    {
      "buffer": 0,
      "byteLength": 135760,
      "byteOffset": 451472,
      "byteStride": 16,
      "name": "floatBufferViews",
      "target": 34962
    }
  ],
  "buffers": [
    {
      "byteLength": 587232,
      "uri": "scene.bin"
    }
  ],
  "images": [
    {
      "uri": "textures/leaves_baseColor.png"
    },
    {
      "uri": "textures/leaves_metallicRoughness.png"
    },
    {
      "uri": "textures/leaves_emissive.jpeg"
    },
    {
      "uri": "textures/leaves_normal.png"
    },
    {
      "uri": "textures/petals_baseColor.png"
    },
    {
      "uri": "textures/petals_metallicRoughness.png"
    },
    {
      "uri": "textures/petals_emissive.jpeg"
    },
    {
      "uri": "textures/petals_normal.png"
    },
    {
      "uri": "textures/face_baseColor.png"
    },
    {
      "uri": "textures/face_metallicRoughness.png"
    },
    {
      "uri": "textures/face_emissive.jpeg"
    },
    {
      "uri": "textures/face_normal.png"
    },
    {
      "uri": "textures/dirt_baseColor.png"
    },
    {
      "uri": "textures/dirt_metallicRoughness.png"
    },
    {
      "uri": "textures/dirt_emissive.jpeg"
    },
    {
      "uri": "textures/dirt_normal.png"
    },
    {
      "uri": "textures/stem_baseColor.png"
    },
    {
      "uri": "textures/stem_metallicRoughness.png"
    },
    {
      "uri": "textures/stem_emissive.jpeg"
    },
    {
      "uri": "textures/stem_normal.png"
    },
    {
      "uri": "textures/material_baseColor.png"
    },
    {
      "uri": "textures/material_metallicRoughness.png"
    },
    {
      "uri": "textures/material_emissive.jpeg"
    },
    {
      "uri": "textures/material_normal.png"
    }
  ],
  "materials": [
    {
      "alphaMode": "BLEND",
      "doubleSided": true,
      "emissiveFactor": [
        1.0,
        1.0,
        1.0
      ],
      "emissiveTexture": {
        "index": 2
      },
      "name": "leaves",
      "normalTexture": {
        "index": 3
      },
      "pbrMetallicRoughness": {
        "baseColorTexture": {
          "index": 0
        },
        "metallicRoughnessTexture": {
          "index": 1
        }
      }
    },
    {
      "alphaMode": "BLEND",
      "doubleSided": true,
      "emissiveFactor": [
        1.0,
        1.0,
        1.0
      ],
      "emissiveTexture": {
        "index": 6
      },
      "name": "petals",
      "normalTexture": {
        "index": 7
      },
      "pbrMetallicRoughness": {
        "baseColorTexture": {
          "index": 4
        },
        "metallicRoughnessTexture": {
          "index": 5
        }
      }
    },
    {
      "alphaMode": "BLEND",
      "doubleSided": true,
      "emissiveFactor": [
        1.0,
        1.0,
        1.0
      ],
      "emissiveTexture": {
        "index": 10
      },
      "name": "face",
      "normalTexture": {
        "index": 11
      },
      "pbrMetallicRoughness": {
        "baseColorTexture": {
          "index": 8
        },
        "metallicRoughnessTexture": {
          "index": 9
        }
      }
    },
    {
      "alphaMode": "BLEND",
      "doubleSided": true,
      "emissiveFactor": [
        1.0,
        1.0,
        1.0
      ],
      "emissiveTexture": {
        "index": 14
      },
      "name": "dirt",
      "normalTexture": {
        "index": 15
      },
      "pbrMetallicRoughness": {
        "baseColorTexture": {
          "index": 12
        },
        "metallicRoughnessTexture": {
          "index": 13
        }
      }
    },
    {
      "alphaMode": "BLEND",
      "doubleSided": true,
      "emissiveFactor": [
        1.0,
        1.0,
        1.0
      ],
      "emissiveTexture": {
        "index": 18
      },
      "name": "stem",
      "normalTexture": {
        "index": 19
      },
      "pbrMetallicRoughness": {
        "baseColorTexture": {
          "index": 16
        },
        "metallicRoughnessTexture": {
          "index": 17
        }
      }
    },
    {
      "alphaMode": "BLEND",
      "doubleSided": true,
      "emissiveFactor": [
        1.0,
        1.0,
        1.0
      ],
      "emissiveTexture": {
        "index": 22
      },
      "name": "material",
      "normalTexture": {
        "index": 23
      },
      "pbrMetallicRoughness": {
        "baseColorTexture": {
          "index": 20
        },
        "metallicRoughnessTexture": {
          "index": 21
        }
      }
    }
  ],
  "meshes": [
    {
      "name": "defaultMaterial",
      "primitives": [
        {
          "attributes": {
            "NORMAL": 1,
            "POSITION": 0,
            "TANGENT": 2,
            "TEXCOORD_0": 3
          },
          "indices": 4,
          "material": 0,
          "mode": 4
        }
      ]
    },
    {
      "name": "defaultMaterial",
      "primitives": [
        {
          "attributes": {
            "NORMAL": 6,
            "POSITION": 5,
            "TANGENT": 7,
            "TEXCOORD_0": 8
          },
          "indices": 9,
          "material": 1,
          "mode": 4
        }
      ]
    },
    {
      "name": "defaultMaterial",
      "primitives": [
        {
          "attributes": {
            "NORMAL": 11,
            "POSITION": 10,
            "TANGENT": 12,
            "TEXCOORD_0": 13
          },
          "indices": 14,
          "material": 2,
          "mode": 4
        }
      ]
    },
    {
      "name": "defaultMaterial",
      "primitives": [
        {
          "attributes": {
            "NORMAL": 16,
            "POSITION": 15,
            "TANGENT": 17,
            "TEXCOORD_0": 18
          },
          "indices": 19,
          "material": 3,
          "mode": 4
        }
      ]
    },
    {
      "name": "defaultMaterial",
      "primitives": [
        {
          "attributes": {
            "NORMAL": 21,
            "POSITION": 20,
            "TANGENT": 22,
            "TEXCOORD_0": 23
          },
          "indices": 24,
          "material": 4,
          "mode": 4
        }
      ]
    },
    {
      "name": "defaultMaterial",
      "primitives": [
        {
          "attributes": {
            "NORMAL": 26,
            "POSITION": 25,
            "TANGENT": 27,
            "TEXCOORD_0": 28
          },
          "indices": 29,
          "material": 5,
          "mode": 4
        }
      ]
    }
  ],
  "nodes": [
    {
      "children": [
        1
      ],
      "matrix": [
        1.0,
        0.0,
        0.0,
        0.0,
        0.0,
        2.220446049250313e-16,
        -1.0,
        0.0,
        0.0,
        1.0,
        2.220446049250313e-16,
        0.0,
        0.0,
        0.0,
        0.0,
        1.0
      ],
      "name": "Sketchfab_model"
    },
    {
      "children": [
        2
      ],
      "matrix": [
        1.0,
        0.0,
        0.0,
        0.0,
        0.0,
        -4.371139006309477e-08,
        0.999999999999999,
        0.0,
        0.0,
        -0.999999999999999,
        -4.371139006309477e-08,
        0.0,
        0.0,
        0.0,
        0.0,
        1.0
      ],
      "name": "Collada visual scene group"
    },
    {
      "children": [
        3,
        4,
        5,
        6,
        7,
        8
      ],
      "name": "polySurface23"
    },
    {
      "mesh": 0,
      "name": "defaultMaterial"
    },
    {
      "mesh": 1,
      "name": "defaultMaterial"
    },
    {
      "mesh": 2,
      "name": "defaultMaterial"
    },
    {
      "mesh": 3,
      "name": "defaultMaterial"
    },
    {
      "mesh": 4,
      "name": "defaultMaterial"
    },
    {
      "mesh": 5,
      "name": "defaultMaterial"
    }
  ],
  "samplers": [
    {
      "magFilter": 9729,
      "minFilter": 9987,
      "wrapS": 10497,
      "wrapT": 10497
    }
  ],
  "scene": 0,
  "scenes": [
    {
      "name": "Sketchfab_Scene",
      "nodes": [
        0
      ]
    }
  ],
  "textures": [
    {
      "sampler": 0,
      "source": 0
    },
    {
      "sampler": 0,
      "source": 1
    },
    {
      "sampler": 0,
      "source": 2
    },
    {
      "sampler": 0,
      "source": 3
    },
    {
      "sampler": 0,
      "source": 4
    },
    {
      "sampler": 0,
      "source": 5
    },
    {
      "sampler": 0,
      "source": 6
    },
    {
      "sampler": 0,
      "source": 7
    },
    {
      "sampler": 0,
      "source": 8
    },
    {
      "sampler": 0,
      "source": 9
    },
    {
      "sampler": 0,
      "source": 10
    },
    {
      "sampler": 0,
      "source": 11
    },
    {
      "sampler": 0,
      "source": 12
    },
    {
      "sampler": 0,
      "source": 13
    },
    {
      "sampler": 0,
      "source": 14
    },
    {
      "sampler": 0,
      "source": 15
    },
    {
      "sampler": 0,
      "source": 16
    },
    {
      "sampler": 0,
      "source": 17
    },
    {
      "sampler": 0,
      "source": 18
    },
    {
      "sampler": 0,
      "source": 19
    },
    {
      "sampler": 0,
      "source": 20
    },
    {
      "sampler": 0,
      "source": 21
    },
    {
      "sampler": 0,
      "source": 22
    },
    {
      "sampler": 0,
      "source": 23
    }
  ]
}
